<svg xmlns="http://www.w3.org/2000/svg" viewBox="210 300 600 160">
  <g text-anchor="middle">
    <g style="line-height:1;font-variant-ligatures:normal;text-align:center" font-weight="700" font-size="72" font-family="Brandmark1 Bold">
      <path style="line-height:1;font-variant-ligatures:normal;text-align:center" d="M222.607 454.29h28.26v-48.78h19.98c7.2 0 14.04-.72 19.98-2.52 6.3-1.8 11.88-4.68 16.38-8.46 4.86-3.96 8.64-8.82 10.98-14.58 2.52-5.94 3.96-12.6 3.96-20.16 0-13.32-4.14-24.66-11.88-32.58-8.46-8.82-20.88-13.32-36.72-13.32h-50.94zm46.8-75.6h-18.54v-37.98h21.06c6.84 0 12.42 1.8 16.02 4.86 3.6 3.06 5.4 7.74 5.4 13.86 0 5.94-1.8 10.62-5.22 13.86-3.96 3.6-10.26 5.4-18.72 5.4zM458.508 454.29h29.88l-53.28-140.4h-24.48l-53.1 140.4h29.88l11.34-31.14h48.24zm-21.06-57.42h-29.16l14.58-39.78zM615.749 401.55c7.38-2.7 13.32-6.84 18-12.06 6.48-7.56 9.9-17.64 9.9-29.7 0-13.32-4.14-24.66-11.88-32.58-4.32-4.32-9.54-7.74-15.66-9.9-6.12-2.16-13.32-3.42-21.06-3.42h-51.66v140.4h28.26V340.71h21.24c7.2 0 12.96 1.8 16.56 4.86 3.6 3.06 5.4 7.74 5.4 13.86 0 5.94-1.8 10.62-5.22 13.68-4.14 3.78-10.44 5.58-18.9 5.58h-5.4v27.54l33.3 48.06h34.2zM752.253 455.37c12.78 0 24.66-3.6 33.48-10.44 4.86-3.78 8.64-8.28 11.34-13.5 2.88-5.4 4.32-11.7 4.32-18.36 0-12.24-4.32-21.6-12.96-28.8-7.38-5.94-17.1-9.72-27.36-13.86-1.08-.36-2.16-.9-3.42-1.26-7.2-2.88-14.04-5.4-18.36-8.46-3.06-2.16-5.04-4.32-4.86-8.46 0-9.18 9-12.6 16.56-12.6 8.1 0 17.82 4.32 26.64 11.52l5.04 4.14 17.28-22.32-4.68-3.96c-13.32-10.62-28.62-16.38-44.28-16.38-12.24 0-23.58 4.14-32.04 11.34-8.64 7.56-13.32 17.82-13.32 28.8 0 6.48 1.26 12.24 3.96 17.28 2.34 4.68 5.76 8.64 10.26 12.42 7.92 6.12 17.82 10.08 27.9 13.86.72.36 1.44.54 1.98.72 7.38 2.88 13.86 5.22 17.82 8.28 3.42 2.52 4.86 5.22 4.86 9.54 0 4.14-1.62 7.2-4.68 9.54-3.6 2.52-9 3.78-15.3 3.78-5.4 0-11.16-1.26-16.2-3.6-5.58-2.7-10.44-6.48-14.22-11.16l-4.86-6.12-18.54 22.32 3.78 3.96c13.14 14.04 30.78 21.78 49.86 21.78z"/>
    </g>
  </g>
</svg>
